<?xml version="1.0" encoding="UTF-8"?>
<svg width="80px" height="22px" viewBox="0 0 80 22" version="1.1" xmlns="http://www.w3.org/2000/svg" xmlns:xlink="http://www.w3.org/1999/xlink">
    <!-- Generator: Sketch 51.3 (57544) - http://www.bohemiancoding.com/sketch -->
    <title>Logo</title>
    <desc>Created with Sketch.</desc>
    <defs></defs>
    <g id="Symbols" stroke="none" stroke-width="1" fill="none" fill-rule="evenodd">
        <g id="STICKY-HEADER" transform="translate(-880.000000, -13.000000)" fill="#AB142D">
            <g id="Group-7">
                <g transform="translate(473.000000, 13.000000)">
                    <g id="Group-9">
                        <g id="Logo" transform="translate(407.000000, 0.000000)">
                            <path d="M10.3206813,13.8879968 C10.3206813,14.9447689 10.287429,15.5903487 10.1887537,16.0323601 C9.92597999,17.2935118 9.03817248,17.9052987 7.49207894,17.9052987 C5.84595837,17.9052987 4.79243039,17.1234658 4.59589078,15.7630981 C4.52965666,15.318924 4.49640443,14.6373885 4.52965666,12.9336848 L0.549662071,12.9336848 L0.549662071,13.7852663 C0.549662071,17.2251149 1.04357935,18.758232 2.62184374,20.1194107 C3.80702893,21.1394161 5.5161395,21.6557718 7.58832117,21.6557718 C10.3206813,21.6557718 12.3934036,20.7311976 13.5772371,18.994512 C14.3985401,17.8390646 14.6621249,16.6463098 14.6621249,14.093728 L14.6621249,0.558448229 L10.3206813,0.558448229 L10.3206813,13.8879968 Z" id="Fill-1"></path>
                            <polygon id="Fill-3" points="56.855123 0.546255745 54.0689646 12.624385 53.4623141 15.985023 52.8535009 12.6927818 50.4706948 0.546255745 48.1662882 0.546255745 48.1654772 0.546255745 45.8610706 0.546255745 43.4782644 12.6927818 42.8694512 15.985023 42.2625304 12.624385 39.4769127 0.546255745 34.7953771 0.546255745 40.7783455 21.6368208 44.874047 21.6368208 47.421222 9.30294674 48.1654772 5.22481752 48.1654772 5.2253582 48.1654772 5.22752095 48.1654772 5.22616923 48.1662882 5.22752095 48.1662882 5.2253582 48.1662882 5.22481752 48.9105434 9.30294674 51.4585293 21.6368208 55.5536902 21.6368208 61.5361179 0.546255745"></polygon>
                            <path d="M23.9676129,13.6672885 L26.7053798,5.36801838 L26.7053798,5.36882941 L26.7059205,5.36801838 L26.7059205,5.36882941 L26.7059205,5.36801838 L29.4439578,13.6672885 L23.9676129,13.6672885 Z M30.6432009,17.3020546 L32.0738578,21.6367397 L36.6861855,21.6367397 L29.1541498,0.546174642 L24.258232,0.546174642 L16.7259259,21.6367397 L21.3379832,21.6367397 L22.7683698,17.3020546 L30.6432009,17.3020546 Z" id="Fill-5"></path>
                            <path d="M66.9045688,13.6672885 L69.6428765,5.36801838 L69.6428765,5.36882941 L69.6428765,5.36801838 L69.6428765,5.36882941 L69.6428765,5.36801838 L72.3814544,13.6672885 L66.9045688,13.6672885 Z M73.5798865,17.3020546 L75.0113544,21.6367397 L79.6231414,21.6367397 L72.0908354,0.546174642 L67.1949175,0.546174642 L59.6628819,21.6367397 L64.2746688,21.6367397 L65.7050554,17.3020546 L73.5798865,17.3020546 Z" id="Fill-7"></path>
                        </g>
                    </g>
                </g>
            </g>
        </g>
    </g>
</svg>